{"accessors" : [{"bufferView" : 0, "byteOffset" : 0, "componentType" : 5123, "count" : 2922, "type" : "SCALAR", "max" : [520], "min" : [0]}, {"bufferView" : 1, "byteOffset" : 0, "componentType" : 5126, "count" : 521, "type" : "VEC3", "max" : [0.34956666827201843, 0.34882041811943054, 0.3354102075099945], "min" : [-0.34961751103401184, -0.34882041811943054, -0.3493199050426483], "name" : "POSITION"}, {"bufferView" : 1, "byteOffset" : 12, "componentType" : 5126, "count" : 521, "type" : "VEC3", "max" : [0.9987662434577942, 0.9966341853141785, 0.9583190679550171], "min" : [-0.9989115595817566, -0.9966341853141785, -0.9980612397193909], "name" : "NORMAL"}, {"bufferView" : 1, "byteOffset" : 24, "componentType" : 5126, "count" : 521, "type" : "VEC2", "max" : [0.44836562871932983, 2.088038444519043], "min" : [-0.5497786998748779, -0.08803832530975342], "name" : "TEXCOORD_0"}, {"bufferView" : 0, "byteOffset" : 5844, "componentType" : 5123, "count" : 432, "type" : "SCALAR", "max" : [143], "min" : [0]}, {"bufferView" : 2, "byteOffset" : 0, "componentType" : 5126, "count" : 144, "type" : "VEC3", "max" : [0.8450319170951843, 0.7608391642570496, 0.8608551621437073], "min" : [-0.4937765896320343, -0.7607769966125488, -0.3816685676574707], "name" : "POSITION"}, {"bufferView" : 2, "byteOffset" : 12, "componentType" : 5126, "count" : 144, "type" : "VEC3", "max" : [1.0000044107437134, 0.9848352670669556, 0.9429195523262024], "min" : [-1.0000044107437134, -0.9848352670669556, -0.9429195523262024], "name" : "NORMAL"}, {"bufferView" : 2, "byteOffset" : 24, "componentType" : 5126, "count" : 144, "type" : "VEC2", "max" : [0.8610789775848389, 1.3141592741012573], "min" : [0.3354102075099945, 0.6858407258987427], "name" : "TEXCOORD_0"}, {"bufferView" : 0, "byteOffset" : 6708, "componentType" : 5123, "count" : 8244, "type" : "SCALAR", "max" : [1462], "min" : [0]}, {"bufferView" : 3, "byteOffset" : 0, "componentType" : 5126, "count" : 1463, "type" : "VEC3", "max" : [1.2760844230651855, 1.1397806406021118, 1.3370598554611206], "min" : [-0.7618470191955566, -1.1397806406021118, -0.6119406223297119], "name" : "POSITION"}, {"bufferView" : 3, "byteOffset" : 12, "componentType" : 5126, "count" : 1463, "type" : "VEC3", "max" : [0.9940391778945923, 0.9983202219009399, 0.9940391778945923], "min" : [-0.9974135756492615, -0.9983202219009399, -0.9956133961677551], "name" : "NORMAL"}, {"bufferView" : 3, "byteOffset" : 24, "componentType" : 5126, "count" : 1463, "type" : "VEC2", "max" : [0.39269909262657166, 2.570796489715576], "min" : [-0.39269909262657166, 0.2146018147468567], "name" : "TEXCOORD_0"}], "asset" : {"generator" : "Aspose.3D 24.9.1", "version" : "2.0"}, "buffers" : [{"uri" : "data:application/octet-stream;base64,", "byteLength" : 91308}], "bufferViews" : [{"buffer" : 0, "byteOffset" : 0, "byteLength" : 23196, "target" : 34963}, {"buffer" : 0, "byteOffset" : 23200, "byteLength" : 16672, "byteStride" : 32, "target" : 34962}, {"buffer" : 0, "byteOffset" : 39876, "byteLength" : 4608, "byteStride" : 32, "target" : 34962}, {"buffer" : 0, "byteOffset" : 44488, "byteLength" : 46816, "byteStride" : 32, "target" : 34962}], "materials" : [{"name" : "F_aa43de88bad546dcbae7e0c5131c1b07", "pbrMetallicRoughness" : {"baseColorFactor" : [0.21586070954799652, 0.21586070954799652, 0.21586070954799652, 1], "metallicFactor" : 0, "roughnessFactor" : 0.20000000298023224}, "emissiveFactor" : [0, 0, 0], "alphaMode" : "OPAQUE", "doubleSided" : false}, {"name" : "F_ac52b92e17244de38e0f6a1ce5222996", "pbrMetallicRoughness" : {"baseColorFactor" : [0.9999998807907104, 0.9999998807907104, 0.6038272976875305, 1], "metallicFactor" : 0, "roughnessFactor" : 0.20000000298023224}, "emissiveFactor" : [0, 0, 0], "alphaMode" : "OPAQUE", "doubleSided" : false}, {"name" : "F_7e9817793bc746d292ea33bfba869a13", "pbrMetallicRoughness" : {"baseColorFactor" : [0.9999998807907104, 0.9999998807907104, 0.9999998807907104, 1], "metallicFactor" : 0, "roughnessFactor" : 0.20000000298023224}, "emissiveFactor" : [0, 0, 0], "alphaMode" : "OPAQUE", "doubleSided" : false}], "meshes" : [{"primitives" : [{"attributes" : {"POSITION" : 1, "NORMAL" : 2, "TEXCOORD_0" : 3}, "indices" : 0, "material" : 0, "mode" : 4}, {"attributes" : {"POSITION" : 5, "NORMAL" : 6, "TEXCOORD_0" : 7}, "indices" : 4, "material" : 1, "mode" : 4}, {"attributes" : {"POSITION" : 9, "NORMAL" : 10, "TEXCOORD_0" : 11}, "indices" : 8, "material" : 2, "mode" : 4}], "name" : "?????????1"}], "nodes" : [{"matrix" : [10, 0, 0, 0, 0, 10, 0, 0, 0, 0, 10, 0, 0, 0, 0, 1], "mesh" : 0, "name" : "?????????1"}, {"children" : [0], "name" : "methane"}], "scene" : 0, "scenes" : [{"nodes" : [1]}]}